#!OML:ASF F:\VICON\USERDATA\INSTALL\rory3\rory3.ASF
:FULLY-SPECIFIED
:DEGREES

229
root 4.00092 17.7701 22.046 -2.82306 -1.14785 -2.04544
lowerback 10.7754 -1.37009 -0.0445569
upperback -0.0203222 -1.66625 2.64877
thorax -5.99145 -0.778071 3.07008
lowerneck -18.0675 -1.98838 -2.13443
upperneck 17.8192 -1.99585 -0.731191
head 8.55095 -1.16834 -0.146804
rclavicle 3.49116e-015 -2.14687e-014
rhumerus -37.5552 -27.1213 -71.2207
rradius 21.9382
rwrist 9.50951
rhand -20.1908 21.6071
rfingers 7.12502
rthumb 6.15562 -8.28349
lclavicle 3.49116e-015 -2.14687e-014
lhumerus -29.1817 0.58596 81.6692
lradius 32.6342
lwrist 7.51653
lhand -25.2663 27.6556
lfingers 7.12502
lthumb 1.25434 57.6317
rfemur -25.8619 4.75305 24.7922
rtibia 31.0044
rfoot -2.61388 -2.82592
rtoes 7.34791
lfemur 9.65818 -3.27555 -20.2686
ltibia 43.8884
lfoot 10.1423 -16.5347
ltoes -15.6746
230
root 3.97613 17.8085 22.262 -2.928 -1.18341 -2.30187
lowerback 10.85 -1.31873 0.153743
upperback -0.0405658 -1.56785 2.70204
thorax -6.06389 -0.733793 3.00209
lowerneck -18.1779 -2.00077 -2.13234
upperneck 17.9735 -2.02608 -0.654566
head 8.62393 -1.17504 -0.127281
rclavicle 1.97667e-014 -3.97569e-016
rhumerus -37.5344 -27.0717 -71.3193
rradius 21.9255
rwrist 9.27475
rhand -20.8704 20.9683
rfingers 7.12502
rthumb 5.4995 -8.9403
lclavicle 1.97667e-014 -3.97569e-016
lhumerus -29.7837 0.636172 81.8696
lradius 32.9395
lwrist 7.52082
lhand -25.0307 26.2242
lfingers 7.12502
lthumb 1.48189 56.1988
rfemur -24.9655 4.85112 25.2564
rtibia 31.0292
rfoot -2.76486 -2.86996
rtoes 9.02122
lfemur 8.30575 -3.20079 -19.7855
ltibia 46.3844
lfoot 14.0416 -16.4342
ltoes -7.23469
231
root 3.94885 17.8317 22.4591 -2.99124 -1.33934 -2.27619
lowerback 10.9413 -1.1655 0.019911
upperback -0.0687902 -1.38033 2.67604
thorax -6.15187 -0.636809 3.0246
lowerneck -17.9236 -2.08121 -2.0997
upperneck 17.8084 -2.14736 -0.68434
head 8.52272 -1.2322 -0.154042
rclavicle -1.61513e-014 -1.19271e-014
rhumerus -37.5112 -26.8714 -71.4891
rradius 22.0265
rwrist 8.91583
rhand -20.4794 21.3619
rfingers 7.12502
rthumb 5.87699 -8.53657
lclavicle -1.61513e-014 -1.19271e-014
lhumerus -30.1572 0.520641 82.0816
lradius 32.9882
lwrist 7.61066
lhand -25.346 25.4327
lfingers 7.12502
lthumb 1.17741 55.4091
rfemur -24.2155 5.27405 25.3895
rtibia 31.0235
rfoot -2.9157 -3.0809
rtoes 10.2035
lfemur 6.82587 -3.01395 -19.5975
ltibia 48.8967
lfoot 17.0141 -15.1843
ltoes 3.6076
232
root 3.92376 17.856 22.6544 -3.03496 -1.39361 -2.82129
lowerback 10.9721 -1.11298 0.550806
upperback -0.0470883 -1.23515 2.78899
thorax -6.16267 -0.579922 2.8209
lowerneck -17.9009 -2.18604 -2.06565
upperneck 17.8951 -2.28776 -0.747671
head 8.54781 -1.30328 -0.198961
rclavicle 1.08959e-014 1.07344e-014
rhumerus -37.2938 -26.6449 -71.7658
rradius 22.0142
rwrist 8.58221
rhand -19.341 22.1588
rfingers 7.12502
rthumb 6.97604 -7.70626
lclavicle 1.08959e-014 1.07344e-014
lhumerus -30.2814 0.000702049 82.371
lradius 32.836
lwrist 7.71625
lhand -25.6555 25.8898
lfingers 7.12502
lthumb 0.878501 55.8677
rfemur -23.3985 5.48883 26.1709
rtibia 30.9835
rfoot -3.15596 -3.23347
rtoes 10.575
lfemur 5.26373 -2.85927 -18.7069
ltibia 51.4028
lfoot 19.8538 -11.2818
ltoes 21.7475
233
root 3.90787 17.886 22.8546 -3.07731 -1.49317 -3.516
lowerback 10.9621 -1.09386 1.26868
upperback -0.0110811 -1.10829 2.96069
thorax -6.13543 -0.537067 2.57506
lowerneck -17.7725 -2.25159 -2.03812
upperneck 17.7724 -2.38207 -0.782694
head 8.48311 -1.34895 -0.224502
rclavicle -1.83503e-014 -5.96354e-015
rhumerus -36.9959 -26.6841 -71.8362
rradius 21.7174
rwrist 8.76733
rhand -18.8784 22.7145
rfingers 7.12502
rthumb 7.42251 -7.13532
lclavicle -1.83503e-014 -5.96354e-015
lhumerus -30.3233 -0.608732 82.7661
lradius 32.4319
lwrist 8.11718
lhand -25.0422 25.2152
lfingers 7.12502
lthumb 1.47077 55.1899
rfemur -22.516 5.54005 27.109
rtibia 30.9759
rfoot -3.61608 -3.21005
rtoes 11.3402
lfemur 3.75863 -2.7041 -17.7322
ltibia 53.8118
lfoot 21.2682 -16.6472
ltoes 7.81854
234
root 3.88702 17.9126 23.0474 -3.14688 -1.67251 -4.06898
lowerback 11.0146 -1.0201 1.7606
upperback 0.0657436 -0.940133 3.08545
thorax -6.09595 -0.467611 2.40166
lowerneck -17.7538 -2.24675 -1.97248
upperneck 17.6021 -2.41269 -0.694705
head 8.42228 -1.34858 -0.207749
rclavicle 2.42145e-014 -4.49253e-014
rhumerus -36.5393 -26.2002 -72.3041
rradius 21.6668
rwrist 8.4516
rhand -19.081 23.0134
rfingers 7.12502
rthumb 7.22694 -6.84317
lclavicle 2.42145e-014 -4.49253e-014
lhumerus -30.4293 -1.14344 83.0997
lradius 32.2319
lwrist 8.50824
lhand -24.6953 23.3936
lfingers 7.12502
lthumb 1.80586 53.3657
rfemur -21.6335 5.92708 27.8681
rtibia 30.9143
rfoot -4.0651 -3.41016
rtoes 11.7194
lfemur 2.37876 -2.40191 -16.8855
ltibia 56.0445
lfoot 21.305 -18.9379
ltoes 4.55787
235
root 3.8657 17.9333 23.2386 -3.24676 -1.7008 -4.36705
lowerback 11.0127 -0.943388 2.00061
upperback 0.184156 -0.807996 3.14784
thorax -5.97599 -0.409094 2.30804
lowerneck -17.7402 -2.26937 -2.02057
upperneck 17.4327 -2.48018 -0.461702
head 8.3666 -1.35808 -0.128411
rclavicle 1.3741e-014 -4.25399e-014
rhumerus -36.0895 -25.7232 -72.8314
rradius 21.8451
rwrist 8.03974
rhand -18.6717 23.4572
rfingers 7.12502
rthumb 7.62205 -6.38549
lclavicle 1.3741e-014 -4.25399e-014
lhumerus -30.7107 -1.41672 83.3778
lradius 32.6412
lwrist 8.27501
lhand -25.0563 23.0233
lfingers 7.12502
lthumb 1.45723 52.9981
rfemur -20.7531 6.1395 28.3498
rtibia 30.7943
rfoot -4.40433 -3.62669
rtoes 11.7046
lfemur 1.02081 -2.21011 -16.3441
ltibia 58.1147
lfoot 20.9963 -18.9619
ltoes 6.09535
